# xmcd CD database file
#
# Track frame offsets:
#	150
#	18069
#	32121
#	49641
#	66816
#	82991
#	97933
#	117500
#	134803
#	151970
#	171081
#	188691
#	202491
#	219024
#	234221
#	248490
#	259206
#	275541
#	294448
#
# Disc length: 4128 seconds
#
# Revision: 0
# Processed by: cddbd v1.5.2PL0 Copyright (c) Steve Scherf et al.
# Submitted via: CDex 1.50
#
DISCID=05101e13
DTITLE=Compilation - Las Grandes Sesiones De La Salsa 5 (4CD)
DYEAR=2006
DGENRE=Salsa
TTITLE0=Don Perignon and La Puertorriqueña/La Fuga
TTITLE1=Salsa De Barrio/Tengo
TTITLE2=Grupo Niche /Culebra
TTITLE3=Miles Peña/La Cita
TTITLE4=Miguel Antonio/Te Extraño
TTITLE5=Salsa Con Klase/Un Beso Y Una Flor
TTITLE6=Pedrito Calvo/Esa Mujer
TTITLE7=Luisito Carriòn and La Mundial/Yo Lo Coloco Y Ella Lo Quita
TTITLE8=Patrulla 15/Tengo La Camisa Negra
TTITLE9=Mambo/El Amor
TTITLE10=El Jefrey/La Noche
TTITLE11=Grupaso/Sobregirado De Amor
TTITLE12=Swing Diving/Si Me ves LLorar
TTITLE13=Axel/Naci Para Amar
TTITLE14=Neury Luciano/El Camaleòn
TTITLE15=Tulile/El Amor De Mi Vida
TTITLE16=Amargao/O El O Yo
TTITLE17=Ninoshka/Si No Te Hubieras Ido
TTITLE18=Toque De Keda/Lamento Boliviano
EXTD=YEAR: 2006
EXTT0=
EXTT1=
EXTT2=
EXTT3=
EXTT4=
EXTT5=
EXTT6=
EXTT7=
EXTT8=
EXTT9=
EXTT10=
EXTT11=
EXTT12=
EXTT13=
EXTT14=
EXTT15=
EXTT16=
EXTT17=
EXTT18=
PLAYORDER=
